<svg width="68" height="54" viewBox="0 0 68 54" fill="none" xmlns="http://www.w3.org/2000/svg">
<path d="M43 24.75C46.735 24.75 49.7275 21.735 49.7275 18C49.7275 14.265 46.735 11.25 43 11.25C39.265 11.25 36.25 14.265 36.25 18C36.25 21.735 39.265 24.75 43 24.75ZM25 24.75C28.735 24.75 31.7275 21.735 31.7275 18C31.7275 14.265 28.735 11.25 25 11.25C21.265 11.25 18.25 14.265 18.25 18C18.25 21.735 21.265 24.75 25 24.75ZM25 29.25C19.7575 29.25 9.25 31.8825 9.25 37.125V40.5C9.25 41.7375 10.2625 42.75 11.5 42.75H38.5C39.7375 42.75 40.75 41.7375 40.75 40.5V37.125C40.75 31.8825 30.2425 29.25 25 29.25ZM43 29.25C42.3475 29.25 41.605 29.295 40.8175 29.3625C40.8625 29.385 40.885 29.43 40.9075 29.4525C43.4725 31.32 45.25 33.8175 45.25 37.125V40.5C45.25 41.2875 45.0925 42.0525 44.845 42.75H56.5C57.7375 42.75 58.75 41.7375 58.75 40.5V37.125C58.75 31.8825 48.2425 29.25 43 29.25Z" fill="#6C61EF"/>
</svg>
