<svg width="54" height="54" viewBox="0 0 54 54" fill="none" xmlns="http://www.w3.org/2000/svg">
<path d="M36 24.75C39.735 24.75 42.7275 21.735 42.7275 18C42.7275 14.265 39.735 11.25 36 11.25C32.265 11.25 29.25 14.265 29.25 18C29.25 21.735 32.265 24.75 36 24.75ZM18 24.75C21.735 24.75 24.7275 21.735 24.7275 18C24.7275 14.265 21.735 11.25 18 11.25C14.265 11.25 11.25 14.265 11.25 18C11.25 21.735 14.265 24.75 18 24.75ZM18 29.25C12.7575 29.25 2.25 31.8825 2.25 37.125V40.5C2.25 41.7375 3.2625 42.75 4.5 42.75H31.5C32.7375 42.75 33.75 41.7375 33.75 40.5V37.125C33.75 31.8825 23.2425 29.25 18 29.25ZM36 29.25C35.3475 29.25 34.605 29.295 33.8175 29.3625C33.8625 29.385 33.885 29.43 33.9075 29.4525C36.4725 31.32 38.25 33.8175 38.25 37.125V40.5C38.25 41.2875 38.0925 42.0525 37.845 42.75H49.5C50.7375 42.75 51.75 41.7375 51.75 40.5V37.125C51.75 31.8825 41.2425 29.25 36 29.25Z" fill="#5449D3"/>
</svg>
