<svg width="88" height="76" viewBox="0 0 88 76" fill="none" xmlns="http://www.w3.org/2000/svg">
<path d="M52.7484 23.2173V52.684C52.7484 56.4693 55.3324 58.6 58.1657 58.6C60.7497 58.6 63.583 56.8093 63.583 52.684V23.4667C63.583 19.976 60.999 17.8 58.1657 17.8C55.3324 17.8 52.7484 20.2027 52.7484 23.2173ZM38.5817 40.4667V52.684C38.5817 56.492 41.211 58.6 43.999 58.6C46.583 58.6 49.4164 56.8093 49.4164 52.684V40.716C49.4164 37.2253 46.8324 35.0493 43.999 35.0493C41.1657 35.0493 38.5817 37.452 38.5817 40.4667ZM29.8324 47.788C32.8244 47.788 35.2497 50.2133 35.2497 53.1827C35.2497 54.6194 34.679 55.9973 33.663 57.0133C32.6471 58.0292 31.2691 58.6 29.8324 58.6C28.3956 58.6 27.0177 58.0292 26.0017 57.0133C24.9858 55.9973 24.415 54.6194 24.415 53.1827C24.415 50.2133 26.8404 47.788 29.8324 47.788Z" fill="#6C61EF"/>
</svg>
