<svg width="40" height="32" viewBox="0 0 40 32" fill="none" xmlns="http://www.w3.org/2000/svg">
<path d="M26.667 18.4691C29.4337 18.4691 31.6503 16.2192 31.6503 13.4321C31.6503 10.6449 29.4337 8.39502 26.667 8.39502C23.9003 8.39502 21.667 10.6449 21.667 13.4321C21.667 16.2192 23.9003 18.4691 26.667 18.4691ZM13.3337 18.4691C16.1003 18.4691 18.317 16.2192 18.317 13.4321C18.317 10.6449 16.1003 8.39502 13.3337 8.39502C10.567 8.39502 8.33366 10.6449 8.33366 13.4321C8.33366 16.2192 10.567 18.4691 13.3337 18.4691ZM13.3337 21.8271C9.45033 21.8271 1.66699 23.7916 1.66699 27.7037V30.2222C1.66699 31.1456 2.41699 31.9012 3.33366 31.9012H23.3337C24.2503 31.9012 25.0003 31.1456 25.0003 30.2222V27.7037C25.0003 23.7916 17.217 21.8271 13.3337 21.8271ZM26.667 21.8271C26.1837 21.8271 25.6337 21.8607 25.0503 21.9111C25.0837 21.9279 25.1003 21.9614 25.117 21.9782C27.017 23.3718 28.3337 25.2355 28.3337 27.7037V30.2222C28.3337 30.8098 28.217 31.3807 28.0337 31.9012H36.667C37.5837 31.9012 38.3337 31.1456 38.3337 30.2222V27.7037C38.3337 23.7916 30.5503 21.8271 26.667 21.8271Z" fill="#323B66"/>
</svg>
